<?xml version="1.0" standalone="no"?>
<!DOCTYPE svg PUBLIC "-//W3C//DTD SVG 20010904//EN"
 "http://www.w3.org/TR/2001/REC-SVG-20010904/DTD/svg10.dtd">
<svg version="1.0" xmlns="http://www.w3.org/2000/svg"
 width="512.000000pt" height="512.000000pt" viewBox="0 0 512.000000 512.000000"
 preserveAspectRatio="xMidYMid meet">
<metadata>
Created by potrace 1.14, written by Peter Selinger 2001-2017
</metadata>
<g transform="translate(0.000000,512.000000) scale(0.100000,-0.100000)"
fill="#000000" stroke="none">
<path d="M2230 5105 c-569 -79 -1072 -327 -1475 -730 -154 -154 -234 -251
-349 -428 -187 -286 -308 -596 -378 -967 -25 -136 -36 -547 -18 -701 24 -210
90 -473 166 -667 123 -309 321 -608 569 -858 403 -406 889 -651 1458 -735 171
-25 522 -27 689 -3 456 63 852 226 1225 505 109 82 376 342 444 433 102 136
143 197 203 296 177 296 285 601 337 953 24 169 26 510 4 684 -60 456 -232
868 -518 1243 -103 134 -322 353 -457 457 -368 282 -792 458 -1244 518 -144
19 -519 19 -656 0z"/>
</g>
</svg>
