<svg width="25" height="25" version="1.1" id="Layer_1" xmlns="http://www.w3.org/2000/svg" xmlns:xlink="http://www.w3.org/1999/xlink" x="0px" y="0px"
	 viewBox="0 0 579.2 526.9" style="enable-background:new 0 0 579.2 526.9;" xml:space="preserve">
<style type="text/css">
	.st0{fill:url(#SVGID_1_);}
</style>
<g>
	<linearGradient id="SVGID_1_" gradientUnits="userSpaceOnUse" x1="297.9089" y1="519.098" x2="285.9164" y2="10.4028">
		<stop  offset="0" style="stop-color:#F234FF"/>
		<stop  offset="1" style="stop-color:#BD17FF"/>
	</linearGradient>
	<path class="st0" d="M445.2,104.9c0,7.5,0.3,15.1-0.1,22.6c-0.2,4,1.2,5.6,5,6.8c32.9,10.9,65.8,22.1,98.6,33.2
		c17,5.8,22,16.1,15.9,33.3c-35,99.2-70.1,198.5-105.2,297.7c-5.5,15.5-16.4,20.6-31.9,15.1c-71.1-25.1-142.1-50.3-213.3-75.1
		c-5.6-1.9-12.7-1.7-18.5-0.1c-15.2,4.2-30.1,9.7-45.1,14.6c-14.9,4.8-27-1.2-31.9-16.1C83.4,330.1,48,223.2,12.8,116.3
		C8,101.7,14.2,89.4,28.5,84.6c72.3-23.9,144.6-47.8,216.9-71.7c15.6-5.2,27.6,0.9,32.8,16.3c2.8,8.2,5.8,16.4,8,24.7
		c1.4,5.1,3.9,6.3,8.9,6.3c41.3-0.2,82.7-0.1,124-0.1c17.9,0,26.1,8.2,26.1,26.3C445.2,92.6,445.2,98.8,445.2,104.9z M254.2,40.4
		c-70.9,23.6-141.1,46.9-212,70.5c34.3,104.2,68.3,207.8,102.5,311.8c3-0.9,5.3-1.5,7.6-2.2c65.8-21.9,131.5-43.8,197.3-65.6
		c8.8-2.9,7.3-2.3,4.8-9.7c-27.4-83.5-54.8-166.9-82.3-250.4C266.2,76.8,260.3,58.9,254.2,40.4z M298.1,89.4
		C298.8,92,297.4,87.4,298.1,89.4c28.4,85.8,56.8,171.7,85.2,257.5c6,18,0.3,29.2-17.9,35.2c-19.9,6.6-57.1,19.6-58.7,20.1
		c0.1,0.2,69.4-1,110-1c0-107.3-0.7-203-0.7-310.3C373.9,91,340.8,89.4,298.1,89.4z M445.2,166.9c0,3.1,0-5.3,0-3
		c0,78.8-0.3,157.6,0.2,236.4c0.1,18-10.8,27.1-26.9,27c-53.1-0.5-88.7-0.2-141.8-0.2c-2,0-4,0-6,0c-0.1,0.4-0.1,0.8-0.2,1.2
		c61.5,21.7,97.7,33,159.4,54.8c35.9-101.6,69.3-185.5,105.1-286.7C501.5,185.2,478.6,178.2,445.2,166.9z"/>
</g>
</svg>