<svg width="20" height="22" viewBox="0 0 20 22" fill="none" xmlns="http://www.w3.org/2000/svg">
<path d="M8.08977 9.39014C7.48977 9.39014 7.00977 9.92014 7.00977 10.5601C7.00977 11.2001 7.49977 11.7301 8.08977 11.7301C8.68977 11.7301 9.16977 11.2001 9.16977 10.5601C9.17977 9.92014 8.68977 9.39014 8.08977 9.39014Z" fill="#9500CA"/>
<path d="M11.9501 11.7301C12.5466 11.7301 13.0301 11.2063 13.0301 10.5601C13.0301 9.91396 12.5466 9.39014 11.9501 9.39014C11.3536 9.39014 10.8701 9.91396 10.8701 10.5601C10.8701 11.2063 11.3536 11.7301 11.9501 11.7301Z" fill="#9500CA"/>
<path d="M17.08 0.52002H2.92C1.73 0.52002 0.75 1.49002 0.75 2.70002V16.99C0.75 18.2 1.72 19.17 2.92 19.17H14.91L14.35 17.21L15.7 18.47L16.98 19.65L19.25 21.66V2.70002C19.25 1.49002 18.28 0.52002 17.08 0.52002ZM13 14.33C13 14.33 12.62 13.88 12.3 13.47C13.68 13.08 14.21 12.21 14.21 12.21C13.78 12.5 13.36 12.7 12.99 12.83C12.46 13.05 11.95 13.2 11.46 13.28C10.45 13.47 9.51 13.42 8.72 13.27C8.12 13.15 7.6 12.98 7.17 12.82C6.93 12.72 6.66 12.61 6.4 12.46C6.37 12.44 6.34 12.43 6.3 12.41C6.28 12.4 6.27 12.39 6.26 12.38C6.07 12.27 5.96 12.2 5.96 12.2C5.96 12.2 6.47 13.05 7.81 13.45C7.49 13.85 7.1 14.33 7.1 14.33C4.76 14.26 3.88 12.72 3.88 12.72C3.88 9.32002 5.4 6.56002 5.4 6.56002C6.92 5.42002 8.37 5.45002 8.37 5.45002L8.48 5.58002C6.58 6.13002 5.7 6.96002 5.7 6.96002C5.7 6.96002 5.93 6.83002 6.32 6.65002C7.45 6.15002 8.35 6.02002 8.72 5.98002C8.78 5.97002 8.84 5.96002 8.9 5.96002C9.54 5.88002 10.27 5.85002 11.04 5.94002C12.04 6.06002 13.12 6.35002 14.22 6.95002C14.22 6.95002 13.38 6.16002 11.59 5.61002L11.74 5.44002C11.74 5.44002 13.19 5.41002 14.71 6.55002C14.71 6.55002 16.23 9.31002 16.23 12.71C16.24 12.72 15.34 14.25 13 14.33Z" fill="#9500CA"/>
</svg>
