<svg
  className="icon icon-cart-empty"
  aria-hidden="true"
  focusable="false"
  role="presentation"
  width="19"
  height="23"
  viewBox="0 0 19 23"
  fill="none"
  xmlns="http://www.w3.org/2000/svg"
>
  <path
    d="M18.2444 6.02757H13.7444V4.67091C13.7444 2.43424 11.9444 0.637573 9.6764 0.637573C7.4084 0.637573 5.6084 2.43424 5.6084 4.67091V6.02757H1.1804L0.712402 21.7576C0.712402 22.2709 1.1084 22.6376 1.6124 22.6376H17.8124C18.3164 22.6376 18.7124 22.2342 18.7124 21.7576L18.2444 6.02757ZM6.5444 4.67091C6.5444 2.94757 7.9484 1.51757 9.7124 1.51757C11.4764 1.51757 12.8804 2.91091 12.8804 4.67091V6.02757H6.5444V4.67091ZM5.8964 9.62091C5.5364 9.62091 5.2124 9.32757 5.2124 8.96091C5.2124 8.59424 5.5004 8.30091 5.8964 8.30091C6.2564 8.30091 6.5804 8.59424 6.5804 8.96091C6.5804 9.32757 6.2564 9.62091 5.8964 9.62091ZM13.5284 9.62091C13.1684 9.62091 12.8444 9.32757 12.8444 8.96091C12.8444 8.59424 13.1324 8.30091 13.5284 8.30091C13.8884 8.30091 14.2124 8.59424 14.2124 8.96091C14.2124 9.32757 13.9244 9.62091 13.5284 9.62091Z"
    fill="white"
  ></path>
</svg>