<svg width="20" height="14" viewBox="0 0 20 14" fill="none" xmlns="http://www.w3.org/2000/svg">
<path d="M19.5916 2.19166C19.3582 1.33333 18.6833 0.65833 17.8249 0.424998C16.2583 3.97362e-08 9.99996 0 9.99996 0C9.99996 0 3.74165 -3.97362e-08 2.17499 0.408331C1.33333 0.641664 0.641664 1.33333 0.408332 2.19166C0 3.75832 0 6.99997 0 6.99997C0 6.99997 0 10.2583 0.408332 11.8083C0.641664 12.6666 1.31666 13.3416 2.17499 13.5749C3.75832 13.9999 9.99996 13.9999 9.99996 13.9999C9.99996 13.9999 16.2583 13.9999 17.8249 13.5916C18.6833 13.3583 19.3582 12.6833 19.5916 11.8249C19.9999 10.2583 19.9999 7.01664 19.9999 7.01664C19.9999 7.01664 20.0166 3.75832 19.5916 2.19166Z" fill="#9500CA"/>
<path d="M8.00879 4V9.99997L13.2171 6.99999L8.00879 4Z" fill="white"/>
</svg>
